<?xml version="1.0" standalone="no"?>
<!DOCTYPE svg PUBLIC "-//W3C//DTD SVG 20010904//EN"
 "http://www.w3.org/TR/2001/REC-SVG-20010904/DTD/svg10.dtd">
<svg version="1.0" xmlns="http://www.w3.org/2000/svg"
 width="500.000000pt" height="500.000000pt" viewBox="0 0 500.000000 500.000000"
 preserveAspectRatio="xMidYMid meet">
<metadata>
Created by potrace 1.14, written by Peter Selinger 2001-2017
</metadata>
<g transform="translate(0.000000,500.000000) scale(0.100000,-0.100000)"
fill="#000000" stroke="none">
<path d="M2599 4999 c0 -2 -3 -13 -6 -24 -8 -30 -18 -300 -18 -477 0 -126 3
-160 15 -170 8 -7 12 -9 9 -5 -4 4 -3 25 1 45 20 88 32 515 18 590 -6 30 -17
53 -19 41z"/>
<path d="M1022 4526 c7 -14 33 -46 59 -73 63 -68 118 -143 184 -253 83 -139
97 -160 101 -160 20 0 -86 220 -157 325 -45 68 -161 185 -182 185 -16 0 -16
-3 -5 -24z"/>
<path d="M4344 4371 c-62 -33 -342 -236 -367 -264 -43 -49 10 -26 158 71 113
74 192 133 248 186 44 43 30 46 -39 7z"/>
<path d="M2350 4206 c-3 -2 -29 -7 -59 -10 -103 -11 -221 -36 -346 -75 -120
-36 -302 -122 -417 -197 -38 -24 -85 -52 -105 -63 -41 -21 -206 -165 -289
-252 -76 -80 -194 -236 -259 -341 -176 -283 -280 -571 -321 -883 -9 -67 -9
-285 0 -360 46 -394 245 -742 553 -967 39 -29 72 -56 72 -59 1 -4 -28 -7 -63
-7 -61 0 -190 -29 -246 -54 -76 -34 -99 -46 -137 -71 -24 -15 -43 -25 -43 -22
0 3 -8 -3 -18 -12 -11 -10 -37 -34 -58 -54 -46 -41 -70 -81 -77 -127 -5 -28 0
-39 32 -72 21 -22 37 -41 37 -42 -1 -2 1 -2 3 -1 2 1 18 -5 35 -15 17 -9 47
-22 66 -30 39 -15 251 -71 290 -77 14 -2 54 -8 90 -14 137 -22 269 -39 355
-45 33 -3 85 -7 115 -10 444 -43 1206 -39 1740 10 174 15 488 55 579 73 30 6
56 9 59 6 3 -3 10 -1 16 4 6 5 29 12 51 15 22 2 94 18 159 35 66 17 122 28
124 26 3 -3 10 -1 16 4 19 15 134 59 140 53 3 -3 6 0 6 6 0 6 9 13 20 17 11 3
34 21 52 38 30 29 34 40 30 72 -3 14 -49 66 -59 66 -17 -1 -43 11 -43 20 0 6
-4 8 -9 5 -8 -5 -44 4 -91 21 -8 4 -18 5 -23 5 -4 -1 -26 2 -50 7 -50 12 -99
18 -214 27 -126 10 -129 10 -298 12 -85 1 -155 5 -155 10 0 4 31 23 68 43 182
99 397 292 524 470 117 163 229 414 267 599 32 150 39 240 36 415 -7 405 -132
774 -370 1094 -291 392 -723 636 -1215 686 -147 15 -561 31 -570 21z"/>
</g>
</svg>
